<?xml version="1.0" standalone="no"?>
<!DOCTYPE svg PUBLIC "-//W3C//DTD SVG 20010904//EN"
 "http://www.w3.org/TR/2001/REC-SVG-20010904/DTD/svg10.dtd">
<svg version="1.0" xmlns="http://www.w3.org/2000/svg"
 width="500.000000pt" height="500.000000pt" viewBox="0 0 500.000000 500.000000"
 preserveAspectRatio="xMidYMid meet">
<metadata>
Created by potrace 1.16, written by Peter Selinger 2001-2019
</metadata>
<g transform="translate(0.000000,500.000000) scale(0.100000,-0.100000)"
fill="#000000" stroke="none">
<path d="M871 4760 c-58 -14 -86 -54 -152 -220 -34 -85 -79 -206 -100 -268
l-39 -113 0 -548 c0 -518 1 -549 18 -564 25 -23 68 -21 92 3 19 19 20 33 20
520 l0 500 760 0 760 0 0 -550 c0 -594 -1 -588 52 -624 27 -19 71 -21 101 -4
23 12 241 199 336 288 57 54 71 59 92 33 8 -9 55 -48 104 -88 50 -39 132 -111
182 -158 81 -76 97 -87 128 -87 47 0 88 22 103 55 9 19 12 172 12 580 l0 555
755 0 755 0 0 -1615 c0 -1784 5 -1651 -62 -1674 -38 -13 -1328 -15 -1328 -2 0
4 31 11 69 13 108 8 179 57 222 153 45 102 21 215 -63 290 l-40 37 20 21 c60
64 80 192 43 273 -41 90 -96 124 -389 240 -353 140 -569 227 -627 254 -33 15
-98 42 -144 60 -66 26 -80 35 -65 41 58 23 408 130 456 139 73 14 145 62 172
115 17 31 21 58 21 125 -1 103 -17 139 -82 180 -72 46 -131 53 -243 30 -52
-11 -135 -27 -185 -36 -49 -8 -144 -26 -210 -40 -625 -129 -945 -186 -1155
-206 -141 -13 -162 -8 -141 30 16 29 14 98 -4 132 -16 32 -57 64 -95 75 -14 4
-108 40 -210 81 -102 41 -192 74 -200 74 -7 0 -33 -9 -57 -21 -52 -25 -75 -67
-172 -307 -34 -84 -80 -193 -102 -244 -22 -50 -54 -132 -71 -182 -17 -50 -48
-131 -70 -181 -78 -180 -138 -336 -138 -360 0 -14 7 -41 15 -61 15 -36 11 -34
190 -114 125 -56 297 -120 325 -120 43 0 87 25 105 60 9 17 23 30 32 30 28 0
196 -86 259 -132 34 -25 76 -65 95 -89 95 -120 233 -229 388 -307 l114 -57
-358 -3 c-466 -3 -455 -8 -455 189 0 87 -3 111 -17 127 -28 31 -56 35 -86 11
-27 -20 -27 -21 -27 -152 0 -125 2 -135 29 -194 24 -50 38 -66 78 -90 l48 -28
595 -5 595 -5 185 -79 c102 -43 264 -111 360 -151 96 -40 219 -91 273 -114 80
-35 108 -42 161 -42 73 0 141 28 188 78 31 32 58 109 58 164 l0 36 57 7 c69 8
127 33 175 75 l36 31 688 0 c466 0 702 4 729 11 53 14 136 99 153 155 9 32 12
417 12 1700 l0 1659 -44 110 c-24 61 -69 173 -99 249 -31 76 -59 151 -62 166
-8 37 -41 66 -90 79 -52 14 -372 14 -413 0 -56 -19 -64 -101 -13 -128 12 -7
93 -11 204 -11 l184 0 60 -152 c68 -171 93 -245 85 -253 -3 -3 -337 -5 -743
-5 l-739 0 -5 23 c-3 12 -25 103 -49 202 l-43 180 290 3 c283 2 292 3 314 24
41 38 26 98 -28 117 -38 13 -2883 14 -2938 1z m1456 -162 c-3 -13 -13 -63 -23
-113 -9 -49 -26 -130 -38 -180 l-21 -90 -747 -3 c-412 -1 -748 2 -748 6 0 9
42 117 65 168 8 17 30 73 50 124 19 51 38 96 41 101 3 5 312 9 716 9 l710 0
-5 -22z m786 -78 c10 -52 29 -140 41 -195 13 -55 22 -103 19 -107 -7 -12 -783
-10 -783 2 0 6 18 83 39 173 21 89 42 177 46 195 l7 32 306 -2 307 -3 18 -95z
m87 -951 c0 -471 -1 -501 -17 -488 -9 8 -80 70 -158 138 -189 167 -198 173
-240 173 -43 0 -39 3 -209 -147 -74 -66 -151 -133 -171 -148 l-35 -29 0 501 0
501 415 0 415 0 0 -501z m-2378 -937 c93 -37 168 -72 168 -78 0 -11 -19 -58
-197 -484 -47 -113 -105 -252 -129 -310 -24 -58 -44 -111 -44 -118 0 -15 -78
-204 -89 -215 -9 -9 -159 40 -281 92 -112 47 -107 39 -77 113 14 34 33 88 42
118 9 30 26 73 37 95 10 22 53 123 94 225 42 102 84 204 95 226 10 23 39 93
65 155 111 274 104 260 128 254 11 -4 96 -36 188 -73z m2137 -17 c64 -32 57
-130 -11 -159 -57 -25 -439 -144 -530 -165 -133 -31 -215 -67 -226 -99 -15
-44 3 -76 56 -102 69 -33 444 -188 537 -220 44 -16 145 -56 225 -90 80 -33
228 -95 330 -137 102 -42 195 -85 207 -96 49 -44 50 -112 1 -164 -38 -41 -72
-38 -203 15 -66 27 -134 52 -150 56 -16 4 -47 16 -70 26 -22 10 -125 53 -229
95 -104 42 -196 81 -205 86 -37 21 -114 49 -136 49 -59 0 -92 -79 -49 -120 21
-20 176 -88 299 -130 44 -15 136 -51 205 -80 69 -29 222 -92 340 -141 231 -96
266 -119 277 -182 9 -60 -45 -121 -108 -119 -16 0 -92 26 -167 56 -76 31 -144
56 -150 56 -7 0 -31 9 -55 20 -23 11 -141 60 -262 111 -483 200 -465 193 -493
183 -35 -12 -57 -53 -48 -87 8 -32 34 -46 207 -116 68 -27 153 -63 189 -79 36
-16 80 -33 97 -37 35 -7 238 -90 365 -148 57 -26 81 -43 92 -66 32 -61 9 -132
-49 -157 -44 -18 -69 -18 -108 1 -32 14 -305 128 -670 278 l-197 81 -28 -21
c-21 -16 -27 -28 -27 -59 0 -49 22 -64 192 -134 70 -28 197 -81 281 -117 84
-35 177 -71 205 -80 69 -20 103 -46 117 -88 15 -46 5 -86 -28 -118 -47 -44
-84 -43 -202 6 -333 138 -502 207 -509 207 -9 0 -329 130 -406 165 -27 12
-124 53 -215 90 -91 37 -208 91 -261 121 -95 54 -108 66 -295 262 -82 87 -186
155 -296 193 -45 16 -82 30 -83 31 -3 3 120 307 157 388 14 30 60 143 104 250
l78 195 156 1 c132 1 191 8 395 42 328 56 911 174 1190 241 99 24 128 25 164
6z"/>
</g>
</svg>
