<?xml version="1.0" standalone="no"?>
<!DOCTYPE svg PUBLIC "-//W3C//DTD SVG 20010904//EN"
 "http://www.w3.org/TR/2001/REC-SVG-20010904/DTD/svg10.dtd">
<svg version="1.0" xmlns="http://www.w3.org/2000/svg"
 width="500.000000pt" height="500.000000pt" viewBox="0 0 500.000000 500.000000"
 preserveAspectRatio="xMidYMid meet">
<metadata>
Created by potrace 1.16, written by Peter Selinger 2001-2019
</metadata>
<g transform="translate(0.000000,500.000000) scale(0.100000,-0.100000)"
fill="#000000" stroke="none">
<path d="M3805 4984 c-142 -32 -273 -106 -389 -221 -48 -48 -117 -161 -146
-242 -31 -84 -55 -220 -48 -276 2 -19 1 -35 -3 -35 -4 0 -38 13 -77 30 -176
75 -396 114 -642 114 -199 0 -309 -14 -478 -60 -206 -55 -462 -179 -592 -285
-25 -20 -60 -45 -79 -54 -45 -22 -284 -261 -306 -306 -9 -19 -34 -54 -54 -79
-100 -122 -221 -367 -277 -559 -51 -174 -67 -300 -67 -511 0 -211 16 -337 67
-511 54 -184 182 -446 268 -546 15 -18 44 -59 64 -90 44 -68 230 -257 294
-299 25 -16 73 -50 107 -75 136 -103 386 -222 573 -273 171 -46 280 -60 480
-60 329 0 549 55 860 215 63 33 138 77 165 99 28 21 82 60 120 86 84 57 260
231 308 306 19 29 56 80 81 113 53 70 133 219 192 360 l42 100 284 5 285 5 49
30 c60 38 105 107 111 173 4 35 -10 103 -56 279 -33 128 -67 245 -75 260 -8
15 -36 55 -63 88 -37 46 -65 68 -118 95 -69 34 -72 35 -221 38 l-150 4 -18 72
c-19 76 -81 237 -122 318 -16 31 -22 54 -16 61 44 59 142 179 170 207 19 19
40 46 47 60 7 14 47 67 88 118 160 201 217 341 217 533 0 170 -76 367 -185
482 -152 159 -312 234 -515 243 -73 2 -126 -1 -175 -12z m311 -175 c81 -21
155 -59 210 -108 35 -31 100 -123 132 -187 71 -140 70 -366 -3 -502 -50 -93
-84 -138 -427 -557 l-76 -94 -76 92 c-131 158 -319 395 -370 465 -82 110 -116
216 -116 354 0 176 103 376 243 472 117 81 319 108 483 65z m-1843 -653 c-10
-13 -60 -72 -111 -130 -123 -141 -273 -372 -294 -453 l-6 -23 -342 0 -342 0
32 40 c79 100 378 360 414 360 3 0 64 29 136 65 142 70 266 113 412 144 123
26 123 26 101 -3z m527 9 c123 -22 246 -59 363 -111 l102 -45 35 -66 c19 -37
72 -114 118 -172 45 -59 100 -132 122 -164 l39 -57 -221 2 -221 3 -10 30 c-14
41 -109 206 -165 285 -26 36 -87 112 -137 168 -90 104 -121 142 -114 142 2 0
42 -7 89 -15z m-202 -107 c125 -129 269 -325 338 -460 l24 -48 -461 0 c-426 0
-461 1 -455 17 14 36 109 184 181 283 77 105 250 296 271 299 6 0 52 -41 102
-91z m-822 -683 c-3 -9 -26 -80 -51 -158 -80 -254 -110 -446 -110 -717 0 -271
30 -463 110 -717 25 -78 48 -149 51 -158 5 -13 -35 -15 -360 -15 -229 0 -366
4 -366 10 0 5 -29 68 -65 140 -74 150 -114 263 -147 417 -20 95 -23 135 -23
328 1 190 4 234 23 320 34 152 76 270 147 415 36 72 65 135 65 140 0 6 137 10
366 10 325 0 365 -2 360 -15z m1301 -69 c32 -83 103 -353 103 -388 0 -17 -18
-18 -286 -18 l-286 0 -162 91 c-88 50 -221 122 -295 160 -124 64 -138 69 -197
69 -35 0 -64 2 -64 5 0 3 14 42 31 85 l30 80 548 0 547 0 31 -84z m748 -50
c59 -74 114 -137 121 -140 7 -3 30 15 52 40 l39 45 28 -63 c29 -64 75 -203 75
-225 0 -10 -85 -13 -393 -13 l-394 0 -22 105 c-12 58 -42 167 -66 241 -25 74
-45 137 -45 139 0 3 112 5 249 5 l249 0 107 -134z m-1694 -272 c85 -48 165
-94 179 -104 14 -9 75 -44 136 -78 l111 -62 815 0 816 0 4 -147 c4 -164 18
-212 75 -266 59 -55 120 -67 342 -67 119 0 202 -4 206 -10 3 -5 9 -32 12 -60
5 -40 2 -54 -12 -70 -17 -19 -32 -20 -406 -20 l-387 0 -7 28 c-8 39 -62 102
-101 118 -26 11 -111 14 -397 14 l-364 0 -42 -31 c-24 -17 -56 -53 -73 -80
l-31 -49 -374 0 c-240 0 -381 4 -394 10 -21 12 -93 146 -85 159 3 5 19 14 36
21 54 22 70 71 70 211 0 152 -11 181 -84 215 -46 21 -65 24 -183 24 l-133 0 0
165 0 165 59 0 c56 0 68 -5 212 -86z m2461 -264 c94 -29 131 -75 163 -200 9
-36 18 -73 21 -82 5 -17 -8 -18 -183 -18 -103 0 -193 4 -199 8 -27 18 -34 56
-34 181 l0 131 84 0 c55 0 106 -7 148 -20z m-2492 -220 l0 -80 -160 0 -160 0
0 80 0 80 160 0 160 0 0 -80z m-85 -342 c56 -114 99 -169 159 -201 39 -21 54
-22 384 -25 188 -2 342 -6 342 -9 0 -3 -10 -20 -23 -37 -13 -17 -56 -86 -97
-153 l-73 -123 -377 0 -378 0 -26 65 c-35 87 -92 308 -116 451 -11 64 -20 120
-20 125 0 5 40 9 88 9 l88 0 49 -102z m1843 -70 c7 -7 12 -19 12 -27 0 -8
-171 -185 -381 -393 l-381 -378 -165 0 c-94 0 -173 4 -184 10 -28 15 -23 48
14 107 17 28 83 136 146 240 63 103 131 213 152 243 20 30 49 81 64 114 49
103 19 96 388 96 238 0 326 -3 335 -12z m227 -179 c-4 -11 -36 -79 -71 -150
-35 -71 -64 -134 -64 -139 0 -12 -280 -14 -280 -2 0 4 68 75 152 159 l153 152
58 0 c55 1 58 0 52 -20z m-2217 -481 c21 -82 171 -313 294 -454 51 -58 101
-117 111 -130 l19 -24 -34 6 c-189 31 -325 75 -496 159 -73 36 -135 65 -138
65 -3 0 -37 22 -77 49 -75 51 -283 243 -337 311 l-32 40 342 0 342 0 6 -22z
m737 5 c-39 -97 -26 -173 44 -243 28 -28 61 -51 79 -55 l32 -7 -22 -29 c-13
-17 -53 -63 -89 -102 -36 -40 -83 -91 -104 -115 l-38 -43 -99 98 c-54 54 -133
145 -175 201 -74 102 -193 288 -193 304 0 4 129 8 286 8 269 0 286 -1 279 -17z
m1196 -12 c-59 -83 -389 -371 -425 -371 -3 0 -65 -29 -138 -65 -171 -84 -307
-128 -496 -159 l-34 -6 19 24 c10 13 57 68 104 122 47 55 96 114 109 132 24
32 24 32 112 32 68 0 97 4 126 19 20 11 100 83 177 160 l140 141 163 0 163 0
-20 -29z"/>
<path d="M3850 4664 c-115 -31 -213 -112 -267 -223 -25 -51 -28 -66 -28 -166
0 -104 2 -114 32 -175 42 -85 86 -129 175 -174 132 -66 250 -66 383 1 84 42
110 65 152 135 71 117 80 255 24 374 -86 183 -282 278 -471 228z m211 -182
c78 -41 122 -106 127 -189 6 -86 -16 -140 -78 -196 -78 -70 -166 -85 -255 -43
-60 28 -97 66 -124 126 -91 201 132 406 330 302z"/>
<path d="M3070 2500 l0 -80 75 0 75 0 0 80 0 80 -75 0 -75 0 0 -80z"/>
<path d="M3390 2500 l0 -80 80 0 80 0 0 80 0 80 -80 0 -80 0 0 -80z"/>
<path d="M3710 2500 l0 -80 80 0 80 0 0 80 0 80 -80 0 -80 0 0 -80z"/>
<path d="M1610 4755 l0 -75 85 0 85 0 0 75 0 75 -85 0 -85 0 0 -75z"/>
<path d="M1292 4598 l3 -83 78 -3 77 -3 0 86 0 85 -80 0 -81 0 3 -82z"/>
<path d="M925 4352 c-252 -212 -471 -475 -637 -768 -61 -107 -173 -401 -213
-559 -104 -409 -99 -831 15 -1235 50 -176 134 -389 206 -520 69 -127 93 -164
204 -303 47 -60 101 -130 121 -155 67 -86 203 -206 409 -362 199 -151 447
-270 742 -355 253 -73 494 -101 793 -92 332 10 487 43 900 190 84 30 264 125
378 200 201 131 446 355 571 522 46 61 94 124 109 140 14 17 35 41 45 54 l19
25 69 -40 c38 -23 83 -46 101 -53 18 -7 38 -19 44 -27 6 -8 15 -14 20 -14 5 0
9 167 9 375 0 346 -4 400 -25 365 -7 -11 -396 -248 -496 -301 -37 -21 -77 -44
-89 -52 -20 -14 -20 -15 27 -42 39 -22 175 -109 192 -121 2 -2 -7 -18 -21 -36
-14 -18 -32 -47 -42 -65 -50 -98 -392 -442 -525 -528 -175 -113 -227 -144
-346 -205 -181 -93 -400 -164 -591 -193 -128 -19 -190 -22 -439 -22 -366 0
-503 18 -735 94 -483 160 -907 477 -1179 883 -127 189 -222 379 -285 568 -73
220 -97 372 -103 665 -4 187 -2 231 21 400 27 202 54 304 130 492 61 154 94
215 209 392 129 201 154 230 322 390 77 74 163 158 192 187 l52 54 -52 55 -52
55 -70 -58z m3755 -2982 c0 -49 -3 -90 -6 -90 -3 0 -41 21 -84 47 l-79 47 72
43 c40 24 78 43 85 43 9 0 12 -25 12 -90z"/>
</g>
</svg>
