<?xml version="1.0" standalone="no"?>
<!DOCTYPE svg PUBLIC "-//W3C//DTD SVG 20010904//EN"
 "http://www.w3.org/TR/2001/REC-SVG-20010904/DTD/svg10.dtd">
<svg version="1.0" xmlns="http://www.w3.org/2000/svg"
 width="200.000000pt" height="200.000000pt" viewBox="0 0 200.000000 200.000000"
 preserveAspectRatio="xMidYMid meet">
<metadata>
Created by potrace 1.16, written by Peter Selinger 2001-2019
</metadata>
<g transform="translate(0.000000,200.000000) scale(0.100000,-0.100000)"
fill="#000000" stroke="none">
<path d="M510 1481 c0 -10 -3 -33 -6 -50 l-6 -31 104 0 c108 0 139 -10 117
-37 -9 -10 -82 -13 -354 -13 -364 0 -372 -1 -363 -47 3 -17 21 -18 240 -21
182 -2 236 -5 233 -15 -2 -6 -6 -27 -9 -44 l-5 -33 183 0 c149 0 186 -3 196
-15 6 -8 9 -19 5 -25 -4 -6 -123 -10 -354 -10 -306 0 -350 -2 -362 -16 -9 -11
-10 -20 -2 -32 9 -14 33 -17 162 -20 l152 -3 -7 -44 -6 -45 140 0 c104 0 142
-3 151 -13 26 -32 -8 -37 -250 -37 -204 0 -238 -2 -250 -16 -9 -11 -10 -20 -2
-32 8 -13 29 -18 98 -20 l87 -3 -6 -29 -5 -30 507 0 507 0 59 333 c33 182 61
340 64 350 4 16 -25 17 -507 17 -493 0 -511 -1 -511 -19z"/>
<path d="M1563 1368 c-8 -10 -113 -580 -113 -611 0 -4 -126 -7 -280 -7 -154 0
-280 -2 -280 -4 0 -2 7 -21 16 -41 9 -21 14 -49 11 -62 l-4 -23 291 0 292 0
13 35 c25 71 92 125 173 140 45 9 119 -22 143 -59 10 -15 20 -46 23 -71 l5
-45 43 0 c48 0 54 6 65 64 5 28 3 46 -5 56 -11 12 -7 45 16 177 l29 162 -48
148 -48 148 -166 3 c-125 2 -169 -1 -176 -10z m323 -168 c18 -58 34 -108 34
-112 0 -5 -76 -8 -170 -8 -129 0 -170 3 -170 13 0 16 30 189 35 205 4 9 33 12
121 10 l115 -3 35 -105z"/>
<path d="M507 743 c-116 -4 -118 -4 -127 -29 -6 -14 -10 -41 -10 -60 l0 -34
94 0 94 0 10 30 c6 16 23 46 38 65 14 19 25 34 23 33 -2 -1 -57 -4 -122 -5z"/>
<path d="M710 739 c-89 -36 -128 -144 -74 -208 34 -41 79 -49 138 -23 56 25
86 70 86 130 0 56 -14 80 -55 98 -39 16 -60 17 -95 3z"/>
<path d="M1633 731 c-54 -25 -83 -71 -83 -131 0 -56 19 -85 65 -100 121 -40
240 119 158 210 -36 40 -84 47 -140 21z"/>
</g>
</svg>
